<svg xmlns="http://www.w3.org/2000/svg" xmlns:xlink="http://www.w3.org/1999/xlink" width="1000" zoomAndPan="magnify" viewBox="0 0 750 1124.99995" height="1500" preserveAspectRatio="xMidYMid meet" version="1.0"><defs><clipPath id="7d057d1ea4"><path d="M 48.378906 0 L 684 0 L 684 711 L 48.378906 711 Z M 48.378906 0 " clip-rule="nonzero"/></clipPath><clipPath id="5e28b0cb14"><path d="M 48.378906 413.757812 L 684 413.757812 L 684 1124.757812 L 48.378906 1124.757812 Z M 48.378906 413.757812 " clip-rule="nonzero"/></clipPath></defs><g clip-path="url(#7d057d1ea4)"><path fill="#ba9151" d="M 683.503906 755.296875 L 48.933594 755.296875 L 48.933594 219.679688 C 48.933594 197.351562 65.582031 178.679688 87.117188 175.515625 L 87.476562 136.925781 L 136.089844 136.925781 C 139.132812 110.703125 161.492188 90.277344 188.511719 90.277344 L 206 90.277344 C 208.789062 66.207031 227.761719 46.679688 252.324219 43.683594 L 299.679688 37.898438 C 323.65625 34.960938 345.65625 23.363281 361.617188 5.230469 L 366.21875 0 L 370.816406 5.230469 C 386.777344 23.363281 408.777344 34.960938 432.753906 37.898438 L 480.125 43.683594 C 504.671875 46.679688 523.660156 66.222656 526.449219 90.277344 L 543.9375 90.277344 C 570.972656 90.277344 593.316406 110.703125 596.359375 136.925781 L 644.957031 136.925781 L 645.332031 175.515625 C 666.867188 178.664062 683.515625 197.351562 683.515625 219.679688 L 683.515625 755.296875 Z M 61.191406 743.023438 L 671.226562 743.023438 L 671.226562 219.679688 C 671.226562 202.011719 656.855469 187.492188 639.171875 187.324219 L 633.148438 187.265625 L 632.789062 149.199219 L 584.414062 149.199219 L 584.414062 143.070312 C 584.414062 120.726562 566.234375 102.566406 543.90625 102.566406 L 514.503906 102.566406 L 514.503906 96.433594 C 514.503906 75.8125 499.070312 58.386719 478.613281 55.882812 L 431.242188 50.097656 C 406.515625 47.070312 383.660156 35.847656 366.1875 18.28125 C 348.730469 35.847656 325.859375 47.070312 301.132812 50.097656 L 253.777344 55.882812 C 233.320312 58.386719 217.886719 75.8125 217.886719 96.433594 L 217.886719 102.566406 L 188.484375 102.566406 C 166.140625 102.566406 147.976562 120.742188 147.976562 143.070312 L 147.976562 149.199219 L 99.628906 149.199219 L 99.269531 187.265625 L 93.246094 187.324219 C 75.578125 187.492188 61.191406 202.011719 61.191406 219.679688 Z M 61.191406 743.023438 " fill-opacity="1" fill-rule="nonzero"/></g><g clip-path="url(#5e28b0cb14)"><path fill="#ba9151" d="M 683.503906 369.695312 L 48.933594 369.695312 L 48.933594 905.308594 C 48.933594 927.640625 65.582031 946.3125 87.117188 949.472656 L 87.476562 988.0625 L 136.089844 988.0625 C 139.132812 1014.289062 161.492188 1034.714844 188.511719 1034.714844 L 206 1034.714844 C 208.789062 1058.78125 227.761719 1078.308594 252.324219 1081.304688 L 299.679688 1087.089844 C 323.65625 1090.027344 345.65625 1101.628906 361.617188 1119.761719 L 366.21875 1124.992188 L 370.816406 1119.761719 C 386.777344 1101.628906 408.777344 1090.027344 432.753906 1087.089844 L 480.125 1081.304688 C 504.671875 1078.308594 523.660156 1058.765625 526.449219 1034.714844 L 543.9375 1034.714844 C 570.972656 1034.714844 593.316406 1014.289062 596.359375 988.0625 L 644.957031 988.0625 L 645.332031 949.472656 C 666.867188 946.328125 683.515625 927.640625 683.515625 905.308594 L 683.515625 369.695312 Z M 61.191406 381.96875 L 671.226562 381.96875 L 671.226562 905.308594 C 671.226562 922.980469 656.855469 937.5 639.171875 937.664062 L 633.148438 937.726562 L 632.789062 975.789062 L 584.414062 975.789062 L 584.414062 981.917969 C 584.414062 1004.261719 566.234375 1022.425781 543.90625 1022.425781 L 514.503906 1022.425781 L 514.503906 1028.554688 C 514.503906 1049.175781 499.070312 1066.605469 478.613281 1069.109375 L 431.242188 1074.890625 C 406.515625 1077.917969 383.660156 1089.144531 366.1875 1106.707031 C 348.730469 1089.144531 325.859375 1077.917969 301.132812 1074.890625 L 253.777344 1069.109375 C 233.320312 1066.605469 217.886719 1049.175781 217.886719 1028.554688 L 217.886719 1022.425781 L 188.484375 1022.425781 C 166.140625 1022.425781 147.976562 1004.246094 147.976562 981.917969 L 147.976562 975.789062 L 99.628906 975.789062 L 99.269531 937.726562 L 93.246094 937.664062 C 75.578125 937.5 61.191406 922.980469 61.191406 905.308594 Z M 61.191406 381.96875 " fill-opacity="1" fill-rule="nonzero"/></g></svg>